<svg width="24" height="24" viewBox="0 0 24 24" fill="none" xmlns="http://www.w3.org/2000/svg">
<path d="M3.35405 17.4147C4.91569 18.4191 6.77553 18.9999 8.76878 18.9999C15.3292 18.9999 19.0332 13.4596 18.8135 8.48427C19.5041 7.98988 20.1005 7.36208 20.5792 6.65581C19.9436 6.93832 19.2608 7.12666 18.5467 7.21299C19.2765 6.77353 19.8337 6.08295 20.1005 5.25897C19.4178 5.66703 18.6644 5.95739 17.8561 6.11434C17.2126 5.42377 16.2945 5 15.2743 5C12.9907 5 11.3192 7.12666 11.8293 9.33964C8.89435 9.19054 6.28898 7.78585 4.54685 5.6435C3.62085 7.22868 4.06816 9.30825 5.63764 10.3598C5.05693 10.3441 4.51547 10.1793 4.03677 9.92035C3.99753 11.5605 5.17465 13.0907 6.8697 13.4282C6.37531 13.5616 5.82599 13.593 5.27667 13.4909C5.72397 14.8956 7.03449 15.9158 8.58044 15.9472C7.09727 17.1086 5.22173 17.6344 3.34619 17.4068L3.35405 17.4147Z" fill="white"/>
</svg>
